<svg xmlns="http://www.w3.org/2000/svg" width="1920" height="1080" viewBox="0 0 1920 1080">
  <defs><radialGradient id="centerDark" cx="50%" cy="52%" r="55%"><stop offset="0%" stop-color="#06040d" stop-opacity="0.95"/><stop offset="60%" stop-color="#120c1f" stop-opacity="0.78"/><stop offset="100%" stop-color="#020104" stop-opacity="1"/></radialGradient><linearGradient id="edgePurple" x1="0" y1="0" x2="1" y2="1"><stop offset="0" stop-color="#1a0f2d"/><stop offset="0.5" stop-color="#0a0715"/><stop offset="1" stop-color="#211238"/></linearGradient><linearGradient id="veil" x1="0" y1="0" x2="1" y2="0"><stop offset="0" stop-color="#cbc1e0" stop-opacity="0"/><stop offset="0.5" stop-color="#d6c8e6" stop-opacity="0.1"/><stop offset="1" stop-color="#b7a8d0" stop-opacity="0"/></linearGradient><filter id="softBlur"><feGaussianBlur stdDeviation="8"/></filter><filter id="mistBlur"><feGaussianBlur stdDeviation="24"/></filter><filter id="symbolBlur"><feGaussianBlur stdDeviation="1.5"/></filter></defs>
  <rect width="1920" height="1080" fill="url(#edgePurple)"/><rect width="1920" height="1080" fill="url(#centerDark)"/>
  <g opacity="0.3" filter="url(#mistBlur)"><ellipse cx="210" cy="180" rx="320" ry="120" fill="#4d336f"/><ellipse cx="1660" cy="240" rx="380" ry="150" fill="#553474"/><ellipse cx="260" cy="860" rx="320" ry="140" fill="#3b2859"/><ellipse cx="1650" cy="880" rx="360" ry="130" fill="#442963"/></g>
  <g opacity="0.15" stroke="#c6b37b" stroke-width="1.5" filter="url(#symbolBlur)"><path d="M180 140l44 22-44 22-44-22z" fill="none"/><circle cx="1740" cy="180" r="34" fill="none"/><path d="M1680 860h72m-36-36v72"/><path d="M180 860c22-30 44-30 66 0-22 30-44 30-66 0z" fill="none"/><text x="240" y="360" fill="#c6b37b" font-size="34">✶</text><text x="1660" y="360" fill="#c6b37b" font-size="32">☽</text><text x="300" y="760" fill="#c6b37b" font-size="28">ᚱ</text><text x="1540" y="730" fill="#c6b37b" font-size="30">ᚨ</text></g>
  <g opacity="0.16" fill="#0b0814"><path d="M0 910 L120 820 L180 870 L260 760 L340 860 L420 790 L510 910 Z"/><path d="M430 910 L520 820 L590 860 L660 770 L730 860 L810 790 L880 910 Z"/><path d="M860 910 L940 820 L1010 870 L1070 780 L1150 880 L1240 790 L1320 910 Z"/><path d="M1260 910 L1340 810 L1410 860 L1480 760 L1560 850 L1640 780 L1740 910 Z"/><path d="M1660 910 L1740 840 L1810 870 L1920 790 L1920 1080 L0 1080 L0 930 Z"/></g>
  <g opacity="0.2" filter="url(#softBlur)"><ellipse cx="560" cy="610" rx="72" ry="86" fill="#221432"/><path d="M430 860L560 530L690 860Z" fill="#160e24"/></g>
  <g opacity="0.2"><rect x="0" y="0" width="1920" height="1080" fill="url(#veil)"/><path d="M100 0 C 300 280, 260 760, 480 1080" stroke="#d9cfe8" stroke-opacity="0.09" stroke-width="14" fill="none"/><path d="M620 0 C 820 300, 760 790, 980 1080" stroke="#d9cfe8" stroke-opacity="0.08" stroke-width="10" fill="none"/><path d="M1120 0 C 1320 260, 1280 760, 1520 1080" stroke="#d9cfe8" stroke-opacity="0.08" stroke-width="13" fill="none"/><path d="M1500 0 C 1680 300, 1660 760, 1840 1080" stroke="#d9cfe8" stroke-opacity="0.08" stroke-width="11" fill="none"/></g>
  <ellipse cx="960" cy="540" rx="620" ry="340" fill="#000" opacity="0.3"/>
</svg>
