<svg xmlns="http://www.w3.org/2000/svg" viewBox="0 0 64 64">
  <defs>
    <linearGradient id="bg" x1="0" y1="0" x2="1" y2="1">
      <stop offset="0" stop-color="#30155a"/>
      <stop offset="0.55" stop-color="#160927"/>
      <stop offset="1" stop-color="#07030d"/>
    </linearGradient>
  </defs>
  <rect x="2" y="2" width="60" height="60" rx="8" fill="url(#bg)" stroke="#b58957" stroke-width="1.5"/>
  <g fill="#fff" transform="translate(8 12) rotate(-18 24 20)">
    <path d="M1 13c0-2.1 1.7-3.8 3.8-3.8h22.7c3.2 0 6.1 1.8 7.5 4.6l1.4 2.7H49v8l-12.8 3.1c-3 .7-6.1.2-8.7-1.4L24 24h-7.2l-6 15H3.5l6-15H4.8C2.7 24 1 22.3 1 20.2V13z"/>
    <circle cx="25" cy="19.2" r="6.3" fill="#160927"/>
    <circle cx="25" cy="19.2" r="2" fill="#fff"/>
  </g>
</svg>
